<svg xmlns="http://www.w3.org/2000/svg" viewBox="0 0 33.24 33.24"><defs><style>.cls-1{isolation:isolate;}.cls-2{fill:#fff;}.cls-3{mix-blend-mode:multiply;}.cls-4{fill:#eb5424;}</style></defs><title>Artboard 12</title><g class="cls-1"><g id="Layer_1" data-name="Layer 1"><polygon class="cls-2" points="16.62 5.01 5.12 13.37 9.51 26.89 23.73 26.89 28.12 13.37 16.62 5.01"/><path d="M23.73,27.38H9.51A.49.49,0,0,1,9,27L4.65,13.52A.49.49,0,0,1,4.83,13l11.5-8.35a.49.49,0,0,1,.59,0L28.42,13a.52.52,0,0,1,.18.56L24.2,27A.47.47,0,0,1,23.73,27.38Zm-13.85-1H23.37l4.16-12.82L16.62,5.63,5.71,13.56Z"/><g class="cls-3"><polygon class="cls-4" points="16.62 7.86 7.79 14.28 11.16 24.66 22.08 24.66 25.45 14.28 16.62 7.86"/></g><path class="cls-2" d="M15.4,16.43a2.94,2.94,0,1,1,2.44,0h0v1.21l-.4.82.4.63-.36.4.45.73-.64.59L17.84,22l-1.48.87-1-1V16.43Z"/><path d="M16.36,23.41a.5.5,0,0,1-.35-.15l-1-1a.48.48,0,0,1-.15-.36V16.73a3.45,3.45,0,1,1,3.45,0v.91a.38.38,0,0,1-.05.21l-.28.58.25.39a.47.47,0,0,1-.05.6l-.11.12.25.42a.49.49,0,0,1-.08.62l-.37.35.4.9a.51.51,0,0,1-.2.64l-1.48.87A.59.59,0,0,1,16.36,23.41Zm-.47-1.67.55.54.77-.45L16.84,21a.5.5,0,0,1,.11-.57l.34-.31-.24-.38a.51.51,0,0,1,.06-.6l.11-.12-.2-.3a.53.53,0,0,1,0-.49l.35-.72v-1a.5.5,0,0,1,.29-.51,2.43,2.43,0,1,0-2,0,.5.5,0,0,1,.29.54Z"/><circle cx="16.62" cy="12.89" r="0.63"/></g></g></svg>