<?xml version="1.0" encoding="UTF-8"?>
<svg width="850px" height="425px" viewBox="0 0 850 425" version="1.1" xmlns="http://www.w3.org/2000/svg" xmlns:xlink="http://www.w3.org/1999/xlink">
    <!-- Generator: Sketch 54.1 (76490) - https://sketchapp.com -->
    <title>auth-server-1</title>
    <desc>Created with Sketch.</desc>
    <g id="Page-1" stroke="none" stroke-width="1" fill="none" fill-rule="evenodd">
        <path id="Line" d="M502.999363,120.492341 L250.499362,120.411762 L250.500638,116.411762 L503.000639,116.492341 L503.003831,106.492342 L527,118.5 L502.996172,130.49234 L502.999363,120.492341 Z" fill="#979797" fill-rule="nonzero"></path>
        <text id="GET-/login" font-family="Monaco" font-size="26" font-weight="normal" fill="#000000">
            <tspan x="311" y="112">GET /login</tspan>
        </text>
        <g id="Authorization-Server-2" transform="translate(584.000000, 108.000000)" fill-rule="nonzero">
            <g id="Authorization-Server">
                <rect id="Rectangle" fill="#EB5424" x="45.4724" y="72.3876" width="118.3952" height="105.3752"></rect>
                <path d="M163.8676,182.1028 L45.3856,182.1028 C43.0080746,182.056621 41.0917785,180.140325 41.0456,177.7628 L41.0456,72.3876 C41.0456,69.9906842 42.9886842,68.0476 45.3856,68.0476 L163.8676,68.0476 C166.264516,68.0476 168.2076,69.9906842 168.2076,72.3876 L168.2076,177.7628 C168.2076,180.159716 166.264516,182.1028 163.8676,182.1028 Z M49.7256,173.4228 L159.5276,173.4228 L159.5276,76.7276 L49.7256,76.7276 L49.7256,173.4228 Z" id="Shape" fill="#000000"></path>
                <rect id="Rectangle" fill="#FFFFFF" x="34.0148" y="105.5452" width="141.2236" height="39.06"></rect>
                <path d="M175.2384,148.9452 L34.0148,148.9452 C31.6372746,148.899021 29.7209785,146.982725 29.6748,144.6052 L29.6748,105.5452 C29.6748,103.148284 31.6178842,101.2052 34.0148,101.2052 L175.2384,101.2052 C177.635316,101.2052 179.5784,103.148284 179.5784,105.5452 L179.5784,144.6052 C179.5784,147.002116 177.635316,148.9452 175.2384,148.9452 Z M38.3548,140.2652 L170.8984,140.2652 L170.8984,109.8852 L38.3548,109.8852 L38.3548,140.2652 Z" id="Shape" fill="#000000"></path>
                <rect id="Rectangle" fill="#FFFFFF" x="34.0148" y="45.3928" width="141.2236" height="39.06"></rect>
                <path d="M175.2384,88.7928 L34.0148,88.7928 C31.6178842,88.7928 29.6748,86.8497158 29.6748,84.4528 L29.6748,45.3928 C29.6748,42.9958842 31.6178842,41.0528 34.0148,41.0528 L175.2384,41.0528 C177.635316,41.0528 179.5784,42.9958842 179.5784,45.3928 L179.5784,84.8 C179.397001,87.0603672 177.506023,88.8000671 175.2384,88.7928 Z M38.3548,80.1128 L170.8984,80.1128 L170.8984,50.08 L38.3548,50.08 L38.3548,80.1128 Z" id="Shape" fill="#000000"></path>
                <rect id="Rectangle" fill="#FFFFFF" x="34.0148" y="165.6108" width="141.2236" height="39.06"></rect>
                <path d="M175.2384,209.0108 L34.0148,209.0108 C31.6178842,209.0108 29.6748,207.067716 29.6748,204.6708 L29.6748,165.6108 C29.7209785,163.233275 31.6372746,161.316979 34.0148,161.2708 L175.2384,161.2708 C177.635316,161.2708 179.5784,163.213884 179.5784,165.6108 L179.5784,204.6708 C179.5784,207.067716 177.635316,209.0108 175.2384,209.0108 Z M38.3548,200.3308 L170.8984,200.3308 L170.8984,169.9508 L38.3548,169.9508 L38.3548,200.3308 Z" id="Shape" fill="#000000"></path>
                <path d="M29.9352,192.2584 L4.7632,192.2584 C2.38567463,192.212221 0.469378518,190.295925 0.4232,187.9184 C0.4232,185.521484 2.36628419,183.5784 4.7632,183.5784 L29.9352,183.5784 C32.3321158,183.5784 34.2752,185.521484 34.2752,187.9184 C34.2290215,190.295925 32.3127254,192.212221 29.9352,192.2584 L29.9352,192.2584 Z" id="Path" fill="#000000"></path>
                <path d="M202.32,192.2584 L177.2348,192.2584 C174.837884,192.2584 172.8948,190.315316 172.8948,187.9184 C172.8948,185.521484 174.837884,183.5784 177.2348,183.5784 L202.32,183.5784 C204.716916,183.5784 206.66,185.521484 206.66,187.9184 C206.66,190.315316 204.716916,192.2584 202.32,192.2584 Z" id="Path" fill="#000000"></path>
                <rect id="Rectangle" fill="#000000" x="21.0816" y="180.0196" width="10.9368" height="15.5372"></rect>
                <rect id="Rectangle" fill="#000000" x="177.2348" y="180.0196" width="10.9368" height="15.5372"></rect>
                <path d="M152.3232,128.2 L102.5868,128.2 C100.189884,128.2 98.2468,126.256916 98.2468,123.86 C98.2468,121.463084 100.189884,119.52 102.5868,119.52 L152.3232,119.52 C154.720116,119.52 156.6632,121.463084 156.6632,123.86 C156.6632,126.256916 154.720116,128.2 152.3232,128.2 L152.3232,128.2 Z" id="Path" fill="#EB5424"></path>
                <path d="M153.9724,189.9148 L104.3228,189.9148 C101.925884,189.9148 99.9828,187.971716 99.9828,185.5748 C99.9828,183.177884 101.925884,181.2348 104.3228,181.2348 L153.9724,181.2348 C156.369316,181.2348 158.3124,183.177884 158.3124,185.5748 C158.3124,187.971716 156.369316,189.9148 153.9724,189.9148 Z" id="Path" fill="#EB5424"></path>
                <path d="M152.3232,68.742 L102.5868,68.742 C100.189884,68.742 98.2468,66.7989158 98.2468,64.402 C98.2468,62.0050842 100.189884,60.062 102.5868,60.062 L152.3232,60.062 C154.700725,60.1081785 156.617021,62.0244746 156.6632,64.402 C156.6632,65.5530396 156.205951,66.6569355 155.392043,67.4708434 C154.578136,68.2847513 153.47424,68.742 152.3232,68.742 Z" id="Path" fill="#EB5424"></path>
                <circle id="Oval" fill="#000000" cx="81.0604" cy="64.9228" r="5.3816"></circle>
                <circle id="Oval" fill="#000000" cx="81.0604" cy="124.4676" r="5.3816"></circle>
                <circle id="Oval" fill="#000000" cx="81.0604" cy="184.5332" r="5.3816"></circle>
                <polygon id="Path" fill="#FFFFFF" points="157.618 45.0456 121.0752 45.0456 129.3212 24.474 149.372 24.474"></polygon>
                <path d="M157.618,49.3856 L121.0752,49.3856 C119.619997,49.3869591 118.257068,48.6730435 117.4296,47.476 C116.781024,46.2240809 116.781024,44.7351191 117.4296,43.4832 L125.6756,22.8248 C126.353255,21.1747005 127.971571,20.1073005 129.7552,20.134 L149.372,20.134 C151.155629,20.1073005 152.773945,21.1747005 153.4516,22.8248 L161.6108,43.4832 C162.306612,44.7231908 162.306612,46.2360092 161.6108,47.476 C160.741971,48.8094364 159.201386,49.5462378 157.618,49.3856 Z M127.4984,40.7056 L151.1948,40.7056 L146.4208,28.814 L132.1856,28.814 L127.4984,40.7056 Z" id="Shape" fill="#000000"></path>
                <polygon id="Path" fill="#FFFFFF" points="153.9724 5.0308 109.444 37.4072 126.4568 89.8344 181.5748 89.8344 198.5876 37.4072"></polygon>
                <path d="M181.488,94.1744 L126.4568,94.1744 C124.551745,94.1859354 122.861892,92.9537506 122.2904,91.1364 L104.9304,39.0564 C104.343535,37.1141624 105.124771,35.0190295 106.84,33.9352 L151.4552,1.5588 C152.970974,0.415910224 155.060626,0.415910224 156.5764,1.5588 L201.1048,33.9352 C202.498677,35.1344392 202.985543,37.0819059 202.32,38.796 L184.96,90.876 C184.5689,92.5722825 183.202097,93.8707457 181.488,94.1744 Z M129.408,85.4944 L178.1896,85.4944 L193.64,39.0564 L154.146,10.4124 L114.7388,39.0564 L129.408,85.4944 Z" id="Shape" fill="#000000"></path>
                <polygon id="Path" fill="#EB5424" points="153.9724 22.6512 126.0228 42.9624 136.6992 75.9464 171.3324 75.9464 182.0088 42.9624"></polygon>
            </g>
        </g>
        <g id="Browser" transform="translate(63.000000, 164.000000)" fill-rule="nonzero">
            <rect id="Rectangle" fill="#FFFFFF" x="3" y="2" width="153" height="93"></rect>
            <path d="M155.6875,98 L3.3125,98 C1.48305677,98 0,96.8453659 0,95.4210526 L0,2.57894737 C0,1.15463407 1.48305677,0 3.3125,0 L155.6875,0 C157.516943,0 159,1.15463407 159,2.57894737 L159,95.4210526 C159,96.8453659 157.516943,98 155.6875,98 Z M6.625,92.8421053 L152.375,92.8421053 L152.375,5.15789474 L6.625,5.15789474 L6.625,92.8421053 Z" id="Shape" fill="#000000"></path>
            <path d="M155.6875,20 L3.3125,20 C1.48305677,20 0,18.8807119 0,17.5 C0,16.1192881 1.48305677,15 3.3125,15 L155.6875,15 C157.516943,15 159,16.1192881 159,17.5 C159,18.8807119 157.516943,20 155.6875,20 Z" id="Path" fill="#000000"></path>
            <ellipse id="Oval" fill="#000000" cx="13.5" cy="9.5" rx="3.5" ry="2.5"></ellipse>
            <ellipse id="Oval" fill="#000000" cx="26.5" cy="9.5" rx="3.5" ry="2.5"></ellipse>
            <ellipse id="Oval" fill="#000000" cx="39.5" cy="9.5" rx="3.5" ry="2.5"></ellipse>
            <path d="M106.666667,66 L53.3333333,66 C51.4923842,66 50,64.8807119 50,63.5 L50,53.5 C50,52.1192881 51.4923842,51 53.3333333,51 L106.666667,51 C108.507616,51 110,52.1192881 110,53.5 L110,63.5 C110,64.8807119 108.507616,66 106.666667,66 Z M56.6666667,61 L103.333333,61 L103.333333,56 L56.6666667,56 L56.6666667,61 Z" id="Shape" fill="#000000"></path>
            <rect id="Rectangle" fill="#EB5424" x="7" y="20" width="146" height="13"></rect>
        </g>
    </g>
</svg>