<?xml version="1.0" encoding="UTF-8"?>
<svg width="850px" height="425px" viewBox="0 0 850 425" version="1.1" xmlns="http://www.w3.org/2000/svg" xmlns:xlink="http://www.w3.org/1999/xlink">
    <!-- Generator: Sketch 54.1 (76490) - https://sketchapp.com -->
    <title>oauth-implicit-1</title>
    <desc>Created with Sketch.</desc>
    <g id="Page-1" stroke="none" stroke-width="1" fill="none" fill-rule="evenodd">
        <g id="SPA-2" transform="translate(50.000000, 62.000000)" fill-rule="nonzero">
            <g id="SPA">
                <rect id="Rectangle" fill="#FFFFFF" x="5.6" y="4.48" width="73.76" height="92"></rect>
                <path d="M79.36,98.48 L5.6,98.48 C4.4954305,98.48 3.6,97.5845695 3.6,96.48 L3.6,4.48 C3.6,3.3754305 4.4954305,2.48 5.6,2.48 L79.36,2.48 C80.4645695,2.48 81.36,3.3754305 81.36,4.48 L81.36,96.48 C81.36,97.5845695 80.4645695,98.48 79.36,98.48 Z M7.6,94.48 L77.36,94.48 L77.36,6.48 L7.6,6.48 L7.6,94.48 Z" id="Shape" fill="#000000"></path>
                <path d="M79.36,51.76 L5.6,51.76 C4.4954305,51.76 3.6,50.8645695 3.6,49.76 L3.6,21.32 C3.62128042,20.2243662 4.50436619,19.3412804 5.6,19.32 L79.36,19.32 C80.4645695,19.32 81.36,20.2154305 81.36,21.32 L81.36,49.76 C81.36,50.8645695 80.4645695,51.76 79.36,51.76 Z M7.6,47.76 L77.36,47.76 L77.36,23.32 L7.6,23.32 L7.6,47.76 Z" id="Shape" fill="#000000"></path>
                <circle id="Oval" fill="#000000" cx="50.36" cy="12.4" r="2.64"></circle>
                <path d="M71.76,14.4 L59.48,14.4 C58.3843662,14.3787196 57.5012804,13.4956338 57.48,12.4 C57.48,11.2954305 58.3754305,10.4 59.48,10.4 L71.76,10.4 C72.8645695,10.4 73.76,11.2954305 73.76,12.4 C73.76,13.5045695 72.8645695,14.4 71.76,14.4 Z" id="Path" fill="#000000"></path>
                <path d="M49.48,64 L35.52,64 C34.4154305,64 33.52,63.1045695 33.52,62 C33.52,60.8954305 34.4154305,60 35.52,60 L49.48,60 C50.5845695,60 51.48,60.8954305 51.48,62 C51.4587196,63.0956338 50.5756338,63.9787196 49.48,64 L49.48,64 Z" id="Path" fill="#000000"></path>
                <path d="M37.76,76.8 L15.36,76.8 C14.2643662,76.7787196 13.3812804,75.8956338 13.36,74.8 C13.36,73.6954305 14.2554305,72.8 15.36,72.8 L37.76,72.8 C38.8645695,72.8 39.76,73.6954305 39.76,74.8 C39.7387196,75.8956338 38.8556338,76.7787196 37.76,76.8 L37.76,76.8 Z" id="Path" fill="#000000"></path>
                <path d="M37.76,86 L15.36,86 C14.2643662,85.9787196 13.3812804,85.0956338 13.36,84 C13.36,82.8954305 14.2554305,82 15.36,82 L37.76,82 C38.8645695,82 39.76,82.8954305 39.76,84 C39.7387196,85.0956338 38.8556338,85.9787196 37.76,86 Z" id="Path" fill="#000000"></path>
                <path d="M69.6,76.8 L47.24,76.8 C46.1354305,76.8 45.24,75.9045695 45.24,74.8 C45.24,73.6954305 46.1354305,72.8 47.24,72.8 L69.6,72.8 C70.7045695,72.8 71.6,73.6954305 71.6,74.8 C71.6,75.9045695 70.7045695,76.8 69.6,76.8 Z" id="Path" fill="#000000"></path>
                <path d="M69.6,86 L47.24,86 C46.1354305,86 45.24,85.1045695 45.24,84 C45.24,82.8954305 46.1354305,82 47.24,82 L69.6,82 C70.7045695,82 71.6,82.8954305 71.6,84 C71.6,85.1045695 70.7045695,86 69.6,86 Z" id="Path" fill="#000000"></path>
                <rect id="Rectangle" fill="#EB5424" x="6.56" y="21.16" width="71.8" height="28.6"></rect>
            </g>
        </g>
        <g id="Server-2" transform="translate(372.000000, 62.000000)" fill-rule="nonzero">
            <g id="Server">
                <rect id="Rectangle" fill="#EB5424" x="25.7826087" y="27.6956522" width="59.3043478" height="52.7826087"></rect>
                <path d="M85.0869565,82.6086957 L25.7826087,82.6086957 C24.5819897,82.6086957 23.6086957,81.6354016 23.6086957,80.4347826 L23.6086957,27.6956522 C23.6086957,26.4950332 24.5819897,25.5217391 25.7826087,25.5217391 L85.0869565,25.5217391 C86.2875755,25.5217391 87.2608696,26.4950332 87.2608696,27.6956522 L87.2608696,80.5217391 C87.2141714,81.6882694 86.2544207,82.60963 85.0869565,82.6086957 Z M27.9565217,78.2608696 L82.9130435,78.2608696 L82.9130435,29.8695652 L27.9565217,29.8695652 L27.9565217,78.2608696 Z" id="Shape" fill="#000000"></path>
                <rect id="Rectangle" fill="#FFFFFF" x="20.0434783" y="44.3478261" width="70.7391304" height="19.5652174"></rect>
                <path d="M90.7826087,66.0869565 L20.0434783,66.0869565 C18.8525719,66.0638256 17.8926961,65.1039498 17.8695652,63.9130435 L17.8695652,44.3478261 C17.8695652,43.1472071 18.8428592,42.173913 20.0434783,42.173913 L90.7826087,42.173913 C91.9832277,42.173913 92.9565217,43.1472071 92.9565217,44.3478261 L92.9565217,63.9130435 C92.9565217,65.1136625 91.9832277,66.0869565 90.7826087,66.0869565 Z M22.2173913,61.7391304 L88.6086957,61.7391304 L88.6086957,46.5217391 L22.2173913,46.5217391 L22.2173913,61.7391304 Z" id="Shape" fill="#000000"></path>
                <rect id="Rectangle" fill="#FFFFFF" x="20.0434783" y="14.2173913" width="70.7391304" height="19.5652174"></rect>
                <path d="M90.7826087,35.9565217 L20.0434783,35.9565217 C18.8525719,35.9333908 17.8926961,34.973515 17.8695652,33.7826087 L17.8695652,14.2173913 C17.8695652,13.0167723 18.8428592,12.0434783 20.0434783,12.0434783 L90.7826087,12.0434783 C91.9832277,12.0434783 92.9565217,13.0167723 92.9565217,14.2173913 L92.9565217,33.7826087 C92.9565217,34.9832277 91.9832277,35.9565217 90.7826087,35.9565217 Z M22.2173913,31.6086957 L88.6086957,31.6086957 L88.6086957,16.3913043 L22.2173913,16.3913043 L22.2173913,31.6086957 Z" id="Shape" fill="#000000"></path>
                <rect id="Rectangle" fill="#FFFFFF" x="20.0434783" y="74.4347826" width="70.7391304" height="19.5652174"></rect>
                <path d="M90.7826087,96.173913 L20.0434783,96.173913 C18.8428592,96.173913 17.8695652,95.200619 17.8695652,94 L17.8695652,74.4347826 C17.8926961,73.2438763 18.8525719,72.2840005 20.0434783,72.2608696 L90.7826087,72.2608696 C91.9832277,72.2608696 92.9565217,73.2341636 92.9565217,74.4347826 L92.9565217,94 C92.9565217,95.200619 91.9832277,96.173913 90.7826087,96.173913 Z M22.2173913,91.826087 L88.6086957,91.826087 L88.6086957,76.6086957 L22.2173913,76.6086957 L22.2173913,91.826087 Z" id="Shape" fill="#000000"></path>
                <path d="M18,87.7826087 L5.39130435,87.7826087 C4.20039803,87.7594778 3.2405222,86.799602 3.2173913,85.6086957 C3.2173913,84.4080766 4.19068533,83.4347826 5.39130435,83.4347826 L18,83.4347826 C19.200619,83.4347826 20.173913,84.4080766 20.173913,85.6086957 C20.1507821,86.799602 19.1909063,87.7594778 18,87.7826087 L18,87.7826087 Z" id="Path" fill="#000000"></path>
                <path d="M104.347826,87.7826087 L91.7826087,87.7826087 C90.5819897,87.7826087 89.6086957,86.8093147 89.6086957,85.6086957 C89.6086957,84.4080766 90.5819897,83.4347826 91.7826087,83.4347826 L104.347826,83.4347826 C105.548445,83.4347826 106.521739,84.4080766 106.521739,85.6086957 C106.521739,86.8093147 105.548445,87.7826087 104.347826,87.7826087 Z" id="Path" fill="#000000"></path>
                <rect id="Rectangle" fill="#000000" x="13.6086957" y="81.6521739" width="5.47826087" height="7.7826087"></rect>
                <rect id="Rectangle" fill="#000000" x="91.7826087" y="81.6521739" width="5.47826087" height="7.7826087"></rect>
                <path d="M79.3043478,55.7391304 L54.3913043,55.7391304 C53.1906853,55.7391304 52.2173913,54.7658364 52.2173913,53.5652174 C52.2173913,52.3645984 53.1906853,51.3913043 54.3913043,51.3913043 L79.3043478,51.3913043 C80.5049668,51.3913043 81.4782609,52.3645984 81.4782609,53.5652174 C81.4782609,54.7658364 80.5049668,55.7391304 79.3043478,55.7391304 L79.3043478,55.7391304 Z" id="Path" fill="#EB5424"></path>
                <path d="M80.1304348,86.6086957 L55.2608696,86.6086957 C54.0602505,86.6086957 53.0869565,85.6354016 53.0869565,84.4347826 C53.0869565,83.2341636 54.0602505,82.2608696 55.2608696,82.2608696 L80.1304348,82.2608696 C81.3310538,82.2608696 82.3043478,83.2341636 82.3043478,84.4347826 C82.3043478,85.6354016 81.3310538,86.6086957 80.1304348,86.6086957 Z" id="Path" fill="#EB5424"></path>
                <path d="M79.3043478,26.0869565 L54.3913043,26.0869565 C53.1906853,26.0869565 52.2173913,25.1136625 52.2173913,23.9130435 C52.2173913,22.7124245 53.1906853,21.7391304 54.3913043,21.7391304 L79.3043478,21.7391304 C80.4952541,21.7622613 81.45513,22.7221372 81.4782609,23.9130435 C81.4782609,24.4896011 81.2492243,25.0425444 80.8415365,25.4502321 C80.4338487,25.8579199 79.8809054,26.0869565 79.3043478,26.0869565 Z" id="Path" fill="#EB5424"></path>
                <circle id="Oval" fill="#000000" cx="43.6086957" cy="24" r="2.69565217"></circle>
                <circle id="Oval" fill="#000000" cx="43.6086957" cy="53.826087" r="2.69565217"></circle>
                <circle id="Oval" fill="#000000" cx="43.6086957" cy="83.9130435" r="2.69565217"></circle>
                <polygon id="Path" fill="#FFFFFF" points="81.9565217 14.0434783 63.6521739 14.0434783 67.7826087 3.73913043 77.826087 3.73913043"></polygon>
                <path d="M81.9565217,16.2173913 L63.6521739,16.2173913 C62.9232606,16.2180721 62.2405669,15.8604706 61.826087,15.2608696 C61.5012142,14.6337813 61.5012142,13.8879579 61.826087,13.2608696 L65.9565217,2.91304348 C66.2919821,2.07736389 67.0995222,1.52754935 68,1.52173913 L77.826087,1.52173913 C78.7265648,1.52754935 79.5341049,2.07736389 79.8695652,2.91304348 L83.9565217,13.2608696 C84.3050549,13.881983 84.3050549,14.6397562 83.9565217,15.2608696 C83.5213239,15.92879 82.7496424,16.2978551 81.9565217,16.2173913 Z M66.8695652,11.8695652 L78.7391304,11.8695652 L76.3478261,5.86956522 L69.2173913,5.86956522 L66.8695652,11.8695652 Z" id="Shape" fill="#000000"></path>
            </g>
        </g>
        <g id="API-2" transform="translate(692.000000, 62.000000)" fill-rule="nonzero">
            <g id="API">
                <path d="M24.6666667,83.7083333 L4.66666667,83.7083333 C3.52538145,83.6861662 2.60550044,82.7662852 2.58333333,81.625 L2.58333333,34.75 C2.60550044,33.6087148 3.52538145,32.6888338 4.66666667,32.6666667 L19.9583333,32.6666667 C21.1089266,32.6666667 22.0416667,33.5994068 22.0416667,34.75 C22.0416667,35.9005932 21.1089266,36.8333333 19.9583333,36.8333333 L6.75,36.8333333 L6.75,79.5416667 L24.6666667,79.5416667 C25.8172599,79.5416667 26.75,80.4744068 26.75,81.625 C26.75,82.7755932 25.8172599,83.7083333 24.6666667,83.7083333 Z" id="Path" fill="#000000"></path>
                <path d="M100.5,83.7083333 L88.5,83.7083333 C87.3494068,83.7083333 86.4166667,82.7755932 86.4166667,81.625 C86.4166667,80.4744068 87.3494068,79.5416667 88.5,79.5416667 L100.5,79.5416667 C101.650593,79.5416667 102.583333,80.4744068 102.583333,81.625 C102.583333,82.7755932 101.650593,83.7083333 100.5,83.7083333 Z" id="Path" fill="#000000"></path>
                <path d="M43.5,96.2916667 L36.375,96.2916667 C28.2937576,96.2461375 21.7538625,89.7062424 21.7083333,81.625 L21.7083333,81.625 C21.7310787,73.5274906 28.2775877,66.9623835 36.375,66.9166667 L43.5,66.9166667 L43.5,96.2916667 Z" id="Path" fill="#EB5424"></path>
                <path d="M67.75,77.4583333 L57.0833333,77.4583333 C55.9327401,77.4583333 55,76.5255932 55,75.375 C55,74.2244068 55.9327401,73.2916667 57.0833333,73.2916667 L67.75,73.2916667 C68.8912852,73.3138338 69.8111662,74.2337148 69.8333333,75.375 C69.8333333,76.5255932 68.9005932,77.4583333 67.75,77.4583333 Z" id="Path" fill="#000000"></path>
                <path d="M67.75,89.9166667 L57.0833333,89.9166667 C55.9327401,89.9166667 55,88.9839266 55,87.8333333 C55,86.6827401 55.9327401,85.75 57.0833333,85.75 L67.75,85.75 C68.9005932,85.75 69.8333333,86.6827401 69.8333333,87.8333333 C69.8333333,88.9839266 68.9005932,89.9166667 67.75,89.9166667 L67.75,89.9166667 Z" id="Path" fill="#000000"></path>
                <path d="M68.625,66.9166667 L75.75,66.9166667 C83.8569116,66.9396325 90.4166992,73.5180559 90.4166667,81.625 L90.4166667,81.625 C90.3937792,89.7156771 83.8406771,96.2687792 75.75,96.2916667 L68.625,96.2916667 L68.625,66.9166667 Z" id="Path" fill="#000000"></path>
                <path d="M20.8333333,38.9166667 L20.8333333,38.9166667 C18.2560045,38.9166667 16.1666667,36.8273288 16.1666667,34.25 L16.1666667,34.25 C16.189534,31.6889578 18.272189,29.6248979 20.8333333,29.625 L20.8333333,29.625" id="Path" fill="#000000"></path>
                <path d="M76.6666667,13.75 C75.8557667,13.7692817 75.0476751,13.8528773 74.25,14 C69.8198963,5.70148108 60.5253008,1.22801914 51.2759046,2.9426343 C42.0265084,4.65724945 34.9529363,12.1649752 33.7916667,21.5 L33.7916667,21.5 C29.4300492,21.4999999 25.3997484,23.8268951 23.2189396,27.6041666 C21.0381309,31.3814381 21.0381309,36.0352286 23.2189396,39.8125001 C25.3997484,43.5897716 29.4300492,45.9166668 33.7916667,45.9166667 L76.6666667,45.9166667 C85.5492464,45.9166667 92.75,38.7159131 92.75,29.8333333 C92.75,20.9507536 85.5492464,13.75 76.6666667,13.75 Z" id="Path" fill="#FFFFFF"></path>
                <path d="M76.6666667,48 L33.5833333,48 C25.9817579,48.0227763 19.6925108,42.0910623 19.2708494,34.5011565 C18.849188,26.9112507 24.4426805,20.3193845 32,19.5 C33.944906,9.98423164 41.4970216,2.61714101 51.0580965,0.908822152 C60.6191714,-0.799496707 70.2551844,3.49651619 75.375,11.75 C75.8045656,11.7087102 76.237101,11.7087102 76.6666667,11.75 C83.1569916,11.7499999 89.1542992,15.212547 92.3994617,20.8333333 C95.6446242,26.4541195 95.6446242,33.3792138 92.3994617,39.0000001 C89.1542992,44.6207863 83.1569916,48.0833334 76.6666667,48.0833333 L76.6666667,48 Z M33.7083333,23.5833333 C28.1164502,23.5833333 23.5833333,28.1164502 23.5833333,33.7083333 C23.5833333,39.3002164 28.1164502,43.8333333 33.7083333,43.8333333 L76.6666667,43.8333333 C81.668385,43.8333334 86.2901634,41.1649485 88.7910226,36.8333334 C91.2918818,32.5017183 91.2918818,27.1649484 88.7910226,22.8333332 C86.2901634,18.5017181 81.668385,15.8333332 76.6666667,15.8333333 C76.0014152,15.7719005 75.3319181,15.7719005 74.6666667,15.8333333 C73.7789637,15.9535496 72.9065843,15.5255899 72.4583333,14.75 C68.4235736,7.27623313 60.0233096,3.26437517 51.6743875,4.82385493 C43.3254654,6.38333469 36.9398143,13.1570264 35.875,21.5833333 C35.7075304,22.6412555 34.7788834,23.4091751 33.7083333,23.375 L33.7083333,23.5833333 Z" id="Shape" fill="#000000"></path>
                <path d="M52.9583333,4.5 C61.5384125,6.06596886 68.1332542,12.9804585 69.2916667,21.625 L73.25,15.5416667 C73.25,15.5416667 65.875,2.125 52.9583333,4.5 Z" id="Path" fill="#EB5424"></path>
            </g>
        </g>
        <g id="User-2" transform="translate(42.000000, 306.000000)" fill-rule="nonzero">
            <g id="User">
                <circle id="Oval" fill="#FFFFFF" cx="50.56" cy="51.16" r="46"></circle>
                <path d="M50.56,99.16 C24.050332,99.16 2.56,77.669668 2.56,51.16 C2.56,24.650332 24.050332,3.16 50.56,3.16 C77.069668,3.16 98.56,24.650332 98.56,51.16 C98.56,63.8903915 93.5028717,76.0993793 84.5011255,85.1011255 C75.4993793,94.1028717 63.2903915,99.16 50.56,99.16 Z M50.56,7.16 C26.259471,7.16 6.56,26.859471 6.56,51.16 C6.56,75.460529 26.259471,95.16 50.56,95.16 C74.860529,95.16 94.56,75.460529 94.56,51.16 C94.56,26.859471 74.860529,7.16 50.56,7.16 Z" id="Shape" fill="#000000"></path>
                <circle id="Oval" fill="#EB5424" cx="50.64" cy="51.16" r="38.12"></circle>
                <circle id="Oval" fill="#FFFFFF" cx="50.88" cy="35.16" r="13.12"></circle>
                <path d="M28.24,62 C31.1784982,51.9488544 40.4081585,45.0510693 50.88,45.08 C61.64,45.08 72,53.36 73.56,62.16 C75.12,70.96 64,72.6 50.88,72.6 C37.76,72.6 25.92,71.4 28.24,62 Z" id="Path" fill="#FFFFFF"></path>
            </g>
        </g>
        <g id="Authorization-Server-2" transform="translate(376.000000, 306.000000)" fill-rule="nonzero">
            <g id="Authorization-Server">
                <rect id="Rectangle" fill="#EB5424" x="23.72" y="34.28" width="54.56" height="48.56"></rect>
                <path d="M78.28,84.84 L23.68,84.84 C22.5843662,84.8187196 21.7012804,83.9356338 21.68,82.84 L21.68,34.28 C21.68,33.1754305 22.5754305,32.28 23.68,32.28 L78.28,32.28 C79.3845695,32.28 80.28,33.1754305 80.28,34.28 L80.28,82.84 C80.28,83.9445695 79.3845695,84.84 78.28,84.84 Z M25.68,80.84 L76.28,80.84 L76.28,36.28 L25.68,36.28 L25.68,80.84 Z" id="Shape" fill="#000000"></path>
                <rect id="Rectangle" fill="#FFFFFF" x="18.44" y="49.56" width="65.08" height="18"></rect>
                <path d="M83.52,69.56 L18.44,69.56 C17.3443662,69.5387196 16.4612804,68.6556338 16.44,67.56 L16.44,49.56 C16.44,48.4554305 17.3354305,47.56 18.44,47.56 L83.52,47.56 C84.6245695,47.56 85.52,48.4554305 85.52,49.56 L85.52,67.56 C85.52,68.6645695 84.6245695,69.56 83.52,69.56 Z M20.44,65.56 L81.52,65.56 L81.52,51.56 L20.44,51.56 L20.44,65.56 Z" id="Shape" fill="#000000"></path>
                <rect id="Rectangle" fill="#FFFFFF" x="18.44" y="21.84" width="65.08" height="18"></rect>
                <path d="M83.52,41.84 L18.44,41.84 C17.3354305,41.84 16.44,40.9445695 16.44,39.84 L16.44,21.84 C16.44,20.7354305 17.3354305,19.84 18.44,19.84 L83.52,19.84 C84.6245695,19.84 85.52,20.7354305 85.52,21.84 L85.52,40 C85.4364059,41.0416439 84.5649874,41.8433489 83.52,41.84 Z M20.44,37.84 L81.52,37.84 L81.52,24 L20.44,24 L20.44,37.84 Z" id="Shape" fill="#000000"></path>
                <rect id="Rectangle" fill="#FFFFFF" x="18.44" y="77.24" width="65.08" height="18"></rect>
                <path d="M83.52,97.24 L18.44,97.24 C17.3354305,97.24 16.44,96.3445695 16.44,95.24 L16.44,77.24 C16.4612804,76.1443662 17.3443662,75.2612804 18.44,75.24 L83.52,75.24 C84.6245695,75.24 85.52,76.1354305 85.52,77.24 L85.52,95.24 C85.52,96.3445695 84.6245695,97.24 83.52,97.24 Z M20.44,93.24 L81.52,93.24 L81.52,79.24 L20.44,79.24 L20.44,93.24 Z" id="Shape" fill="#000000"></path>
                <path d="M16.56,89.52 L4.96,89.52 C3.86436619,89.4987196 2.98128042,88.6156338 2.96,87.52 C2.96,86.4154305 3.8554305,85.52 4.96,85.52 L16.56,85.52 C17.6645695,85.52 18.56,86.4154305 18.56,87.52 C18.5387196,88.6156338 17.6556338,89.4987196 16.56,89.52 L16.56,89.52 Z" id="Path" fill="#000000"></path>
                <path d="M96,89.52 L84.44,89.52 C83.3354305,89.52 82.44,88.6245695 82.44,87.52 C82.44,86.4154305 83.3354305,85.52 84.44,85.52 L96,85.52 C97.1045695,85.52 98,86.4154305 98,87.52 C98,88.6245695 97.1045695,89.52 96,89.52 Z" id="Path" fill="#000000"></path>
                <rect id="Rectangle" fill="#000000" x="12.48" y="83.88" width="5.04" height="7.16"></rect>
                <rect id="Rectangle" fill="#000000" x="84.44" y="83.88" width="5.04" height="7.16"></rect>
                <path d="M72.96,60 L50.04,60 C48.9354305,60 48.04,59.1045695 48.04,58 C48.04,56.8954305 48.9354305,56 50.04,56 L72.96,56 C74.0645695,56 74.96,56.8954305 74.96,58 C74.96,59.1045695 74.0645695,60 72.96,60 L72.96,60 Z" id="Path" fill="#EB5424"></path>
                <path d="M73.72,88.44 L50.84,88.44 C49.7354305,88.44 48.84,87.5445695 48.84,86.44 C48.84,85.3354305 49.7354305,84.44 50.84,84.44 L73.72,84.44 C74.8245695,84.44 75.72,85.3354305 75.72,86.44 C75.72,87.5445695 74.8245695,88.44 73.72,88.44 Z" id="Path" fill="#EB5424"></path>
                <path d="M72.96,32.6 L50.04,32.6 C48.9354305,32.6 48.04,31.7045695 48.04,30.6 C48.04,29.4954305 48.9354305,28.6 50.04,28.6 L72.96,28.6 C74.0556338,28.6212804 74.9387196,29.5043662 74.96,30.6 C74.96,31.130433 74.7492863,31.6391408 74.3742136,32.0142136 C73.9991408,32.3892863 73.490433,32.6 72.96,32.6 Z" id="Path" fill="#EB5424"></path>
                <circle id="Oval" fill="#000000" cx="40.12" cy="30.84" r="2.48"></circle>
                <circle id="Oval" fill="#000000" cx="40.12" cy="58.28" r="2.48"></circle>
                <circle id="Oval" fill="#000000" cx="40.12" cy="85.96" r="2.48"></circle>
                <polygon id="Path" fill="#FFFFFF" points="75.4 21.68 58.56 21.68 62.36 12.2 71.6 12.2"></polygon>
                <path d="M75.4,23.68 L58.56,23.68 C57.8893998,23.6806263 57.2613216,23.351633 56.88,22.8 C56.5811171,22.2230788 56.5811171,21.5369212 56.88,20.96 L60.68,11.44 C60.9922834,10.6795855 61.7380512,10.1876961 62.56,10.2 L71.6,10.2 C72.4219488,10.1876961 73.1677166,10.6795855 73.48,11.44 L77.24,20.96 C77.5606505,21.5314243 77.5606505,22.2285757 77.24,22.8 C76.839618,23.4144868 76.1296711,23.7540267 75.4,23.68 Z M61.52,19.68 L72.44,19.68 L70.24,14.2 L63.68,14.2 L61.52,19.68 Z" id="Shape" fill="#000000"></path>
                <polygon id="Path" fill="#FFFFFF" points="73.72 3.24 53.2 18.16 61.04 42.32 86.44 42.32 94.28 18.16"></polygon>
                <path d="M86.4,44.32 L61.04,44.32 C60.1620946,44.3253158 59.3833603,43.7574888 59.12,42.92 L51.12,18.92 C50.8495552,18.0249596 51.2095718,17.0594606 52,16.56 L72.56,1.64 C73.2585134,1.11332268 74.2214866,1.11332268 74.92,1.64 L95.44,16.56 C96.0823394,17.1126448 96.3067019,18.0100949 96,18.8 L88,42.8 C87.8197696,43.581697 87.1899063,44.1800672 86.4,44.32 Z M62.4,40.32 L84.88,40.32 L92,18.92 L73.8,5.72 L55.64,18.92 L62.4,40.32 Z" id="Shape" fill="#000000"></path>
                <polygon id="Path" fill="#EB5424" points="73.72 11.36 60.84 20.72 65.76 35.92 81.72 35.92 86.64 20.72"></polygon>
            </g>
        </g>
        <text id="❎" font-family="AppleColorEmoji, Apple Color Emoji" font-size="48" font-weight="normal" fill="#000000">
            <tspan x="407" y="142">❎</tspan>
        </text>
    </g>
</svg>